<svg width="173" height="48" viewBox="0 0 173 48" fill="none" xmlns="http://www.w3.org/2000/svg">
<path d="M170.924 21.6889L163.813 30.4C165.236 33.0667 166.836 35.5556 168.436 37.8667C169.502 39.2889 169.858 41.2444 169.324 43.0222V43.2C168.613 45.6889 166.48 47.6444 163.813 47.8222C162.213 48 160.613 48 159.013 48C157.413 48 155.813 48 154.213 47.8222C152.613 47.6444 151.369 46.9333 150.302 45.8667C149.236 46.9333 147.991 47.6444 146.391 47.8222C144.969 48 143.191 48 141.591 48C139.813 48 138.213 48 136.791 47.8222C135.902 47.6444 135.191 47.4667 134.48 47.1111C132.524 47.6444 130.391 47.8222 128.258 47.8222C123.636 47.8222 120.436 46.5778 117.947 44.9778C115.813 46.7556 113.147 47.8222 110.124 47.8222C106.391 47.8222 104.08 46.2222 102.658 44.9778C99.4578 46.7556 95.5467 47.8222 91.6356 47.8222C87.7245 47.8222 84.1689 46.7556 81.5022 44.9778C80.9689 45.3333 80.4356 45.6889 79.9022 45.8667C77.2356 47.1111 73.68 47.8222 70.3022 47.8222C64.7911 47.8222 61.2356 46.0444 58.9244 44.0889C58.5689 44.4444 58.0356 44.8 57.5022 45.1556C52.7022 47.6444 47.5467 47.8222 45.4133 47.8222C37.5911 47.8222 33.68 44.4444 31.5467 41.6C31.3689 41.4222 31.1911 41.2444 31.1911 40.8889C27.6356 45.1556 23.0133 47.8222 16.2578 47.8222C10.2133 47.8222 5.41333 45.5111 2.56889 41.6C-0.453334 37.1556 -0.808889 31.1111 1.50222 24.7111C4.70222 16.3556 12.3467 11.0222 21.5911 11.0222C21.5911 11.0222 21.7689 11.0222 21.9467 11.0222C21.9467 10.8444 21.9467 10.4889 21.9467 10.3111C21.7689 7.46667 23.7244 4.8 26.5689 3.73333L34.9244 0.533333C35.8133 0.177778 36.7022 0 37.5911 0C40.2578 0 42.7467 1.42222 43.9911 3.91111L47.5467 11.2C48.6133 11.0222 49.68 11.0222 50.7467 11.0222C55.7244 11.0222 59.9911 12.8 62.6578 16C66.7467 12.8 71.9022 11.0222 77.5911 11.0222C80.6133 11.0222 83.28 11.5556 85.5911 12.6222C85.9467 12.8 86.48 13.1556 86.8356 13.5111C90.0356 11.9111 93.5911 11.0222 97.3245 11.0222C103.191 11.0222 108.169 13.3333 111.013 17.4222C112.436 19.5556 113.324 21.8667 113.68 24.5333C117.236 16.3556 125.591 11.0222 135.191 11.0222C137.324 11.0222 139.636 11.3778 141.413 11.9111C141.769 11.7333 142.124 11.7333 142.658 11.7333C144.08 11.3778 145.502 11.3778 146.924 11.3778C148.347 11.3778 149.947 11.3778 151.369 11.5556C152.613 11.7333 153.68 12.0889 154.569 12.8C155.458 12.0889 156.524 11.5556 157.769 11.5556C159.191 11.3778 160.791 11.3778 162.391 11.3778C163.991 11.3778 165.413 11.3778 166.836 11.7333C169.147 12.0889 170.924 13.5111 171.813 15.6444C172.702 17.6 172.347 19.9111 170.924 21.6889Z" fill="#D0EC1A"/>
<path d="M156.346 29.5116C158.479 33.9561 160.968 37.8672 163.279 41.245V41.4227C160.434 41.6005 157.59 41.6005 154.923 41.4227C153.679 39.645 152.434 36.9783 151.368 34.3116L145.857 41.4227C143.19 41.6005 139.99 41.6005 137.501 41.4227L147.812 28.9783C146.034 25.7783 144.257 22.4005 143.19 17.6005C145.679 17.4227 148.168 17.4227 150.657 17.6005C151.368 19.9116 152.079 22.4005 152.968 24.7116L158.479 17.6005C160.968 17.245 163.812 17.245 166.123 17.6005L156.346 29.5116ZM40.79 14.5783C41.5011 14.7561 42.0344 14.4005 41.6789 13.6894L38.3011 6.75607C38.1233 6.22274 37.4122 6.22274 37.0566 6.40051L28.5233 9.60051C27.8122 9.77829 27.8122 10.4894 28.5233 10.6672L31.19 11.3783C29.0566 16.0005 26.5678 23.1116 24.4344 27.5561C22.1233 32.5339 20.8789 35.9116 16.9678 35.9116C13.0566 35.9116 12.3455 32.8894 14.1233 28.445C16.0789 23.2894 19.2789 21.8672 23.0122 22.9338C24.0789 21.5116 24.79 19.3783 25.1455 17.4227C24.0789 17.0672 22.8344 17.0672 21.7678 17.0672C15.7233 17.0672 9.85664 20.0894 7.54553 26.6672C4.16775 35.0227 7.0122 41.6005 16.2566 41.6005C23.0122 41.6005 26.7455 38.5783 31.19 29.1561C33.6789 24.0005 35.6344 18.845 38.1233 13.8672L40.79 14.5783ZM58.5678 26.1338C56.9678 30.4005 51.8122 32.1783 42.0344 32.0005C42.0344 34.845 43.99 36.0894 47.5455 36.0894C50.0344 36.0894 52.7011 35.5561 54.4789 34.4894C55.0122 36.2672 55.0122 37.8672 54.6566 39.4672C51.6344 41.0672 48.0789 41.4227 45.4122 41.4227C35.2789 41.4227 33.8566 33.7783 35.99 27.9116C37.9455 22.2227 43.2789 17.0672 50.5678 17.0672C57.5011 17.245 60.3455 21.6894 58.5678 26.1338ZM49.5011 22.2227C46.6566 22.2227 44.5233 24.0005 43.2789 27.0227C49.3233 27.0227 51.4566 26.1338 51.99 24.7116C52.3455 23.645 51.99 22.2227 49.5011 22.2227ZM77.2344 22.9338C78.4789 22.9338 79.7233 23.1116 80.4344 23.645C81.6789 21.8672 82.5677 20.0894 82.5677 18.3116C81.5011 17.7783 79.5455 17.4227 77.2344 17.4227C69.4122 17.4227 63.19 22.045 60.8789 28.445C58.7455 34.4894 60.3455 41.9561 70.3011 41.9561C72.9678 41.9561 75.6344 41.4227 77.4122 40.5338C77.9455 38.7561 78.1233 36.9783 77.59 35.2005C76.3455 35.7338 74.5678 36.2672 72.6122 36.2672C67.6344 36.2672 67.1011 32.5339 68.1678 29.3339C69.4122 25.6005 72.4344 22.9338 77.2344 22.9338ZM111.901 33.4227C108.879 33.4227 107.279 35.3783 106.568 37.1561C105.857 39.2894 106.746 41.7783 110.123 41.7783C112.968 41.7783 114.746 40.0005 115.457 38.2227C116.168 35.9116 115.457 33.4227 111.901 33.4227ZM106.746 31.2894C104.257 37.8672 98.39 41.6005 91.6344 41.6005C82.5678 41.6005 79.9011 34.4894 82.2122 27.7339C84.3455 21.6894 89.8566 17.245 97.1455 17.245C106.39 17.245 109.234 24.1783 106.746 31.2894ZM96.2566 22.7561C92.8789 22.7561 90.5677 25.7783 89.6789 28.8005C88.4344 32.5338 89.1455 36.2672 92.8789 36.2672C96.0789 36.2672 98.39 33.4227 99.4566 30.4005C100.523 26.6672 100.168 22.7561 96.2566 22.7561ZM130.568 35.9116C125.59 35.9116 125.057 32.1783 126.123 28.9783C127.368 25.6005 130.39 22.9338 135.19 22.9338C136.434 22.9338 137.679 23.1116 138.39 23.645C139.634 21.8672 140.523 20.0894 140.523 18.3116C139.457 17.7783 137.501 17.4227 135.19 17.4227C127.368 17.4227 121.146 22.045 118.834 28.445C116.701 34.4894 118.301 41.9561 128.257 41.9561C130.923 41.9561 133.59 41.4227 135.368 40.5338C135.901 38.7561 136.079 36.9783 135.546 35.2005C134.301 35.3783 132.523 35.9116 130.568 35.9116Z" fill="#07401A"/>
</svg>
