<svg width="290" height="120" viewBox="0 0 290 120" fill="none" xmlns="http://www.w3.org/2000/svg">
<path d="M178.387 120C164.61 120 155.721 115.556 149.499 110.667C148.165 111.556 147.276 112.444 145.499 113.333C133.499 119.556 120.165 120 115.276 120C95.7207 120 85.4985 111.556 80.6096 104.444C80.1652 104 79.7207 103.111 79.2763 102.667C70.3874 113.333 58.8318 120 41.4985 120C26.3874 120 13.943 114.222 6.83184 104C-0.723716 92.8889 -1.61261 77.7778 4.60962 61.7778C13.0541 40.4444 32.1652 27.5556 55.7207 27.5556C56.1652 27.5556 56.1652 27.5556 56.6096 27.5556C56.6096 27.1111 56.6096 26.2222 56.6096 25.7778C56.1652 18.2222 61.0541 11.5556 68.1652 9.33333L89.0541 1.33333C91.2763 0.444444 93.4985 0 95.7207 0C102.387 0 108.61 3.55556 111.721 9.77778L120.61 28C123.276 27.5556 125.943 27.5556 128.61 27.5556C141.499 27.5556 151.721 32 158.387 40C168.61 32 181.499 27.5556 195.721 27.5556C203.276 27.5556 210.387 28.8889 215.721 31.5556C217.499 32.4444 219.276 33.3333 220.61 34.6667C228.61 30.2222 237.943 27.5556 248.165 27.5556C262.832 27.5556 275.276 33.3333 282.387 43.5556C289.943 54.2222 291.276 68.8889 286.387 83.5556C278.387 105.778 257.943 120 233.943 120C223.721 120 214.387 117.333 207.276 112C205.943 113.333 204.165 114.667 202.387 115.111C195.721 118.222 187.276 119.556 178.832 120H178.387Z" fill="#D0EC1A"/>
<path d="M236.607 90.6677C226.829 90.6677 225.496 81.3344 228.163 72.0011C230.385 64.4455 236.163 56.89 244.607 56.89C254.829 56.89 255.718 67.1122 252.607 76.0011C250.829 83.5566 245.052 90.6677 236.607 90.6677ZM233.941 104.446C250.829 104.446 265.496 95.1122 271.718 78.2233C277.941 60.4455 270.829 43.1122 248.163 43.1122C229.941 43.1122 215.718 54.6678 210.385 69.7789C204.607 86.6678 210.829 104.446 233.941 104.446ZM178.385 104.446C185.052 104.446 191.718 103.112 196.607 100.89C198.385 96.4455 198.385 92.0011 197.052 87.5566C193.941 88.89 189.052 90.2233 184.607 90.2233C171.718 90.2233 170.829 80.89 173.496 72.89C176.607 64.4455 184.163 57.3344 196.163 57.3344C199.274 57.3344 202.385 57.7789 204.163 59.1122C207.274 54.6678 209.496 50.2233 209.941 45.7789C207.274 44.4455 202.385 43.5566 196.163 43.5566C176.163 43.5566 160.607 55.1122 155.274 71.1122C149.496 85.7789 153.496 104.446 178.385 104.446ZM109.941 68.0011C113.496 60.4455 118.829 56.0011 125.496 56.0011C131.718 56.0011 132.607 59.5566 131.718 62.2233C130.385 65.7789 125.496 68.0011 109.941 68.0011ZM115.718 104.446C122.385 104.446 131.274 103.112 138.829 99.5566C140.163 95.5566 140.163 91.1122 138.385 86.6677C133.496 88.89 126.829 90.6677 120.607 90.6677C111.718 90.6677 106.829 87.5566 106.829 80.4455C131.274 80.89 144.163 76.4455 148.607 65.7789C152.607 54.6678 145.496 43.5566 128.607 43.5566C110.385 43.5566 97.0517 56.4455 91.7183 70.6677C86.8294 85.3344 89.9405 104.446 115.718 104.446ZM41.9405 104.446C58.8294 104.446 68.6072 96.89 79.7183 72.89C85.9405 60.0011 90.8294 47.1122 97.0517 34.2233L104.163 36.4455C105.941 36.89 107.274 36.0011 106.385 34.2233L97.9405 16.4455C96.6072 15.5566 95.2739 15.5566 94.385 15.5566L73.0517 23.5566C71.2739 24.0011 71.2739 25.7789 73.0517 26.2233L79.7183 28.89C74.385 40.89 68.1628 58.6678 62.8294 69.7789C57.0516 82.2233 53.9405 91.1122 44.1628 91.1122C34.385 91.1122 32.6072 83.5566 36.6072 72.4455C41.4961 59.5566 49.4961 56.0011 58.8294 58.6677C61.4961 55.1122 63.2739 49.7789 64.1628 44.89C61.4961 44.0011 58.385 44.0011 55.7183 44.0011C40.6072 44.0011 25.9405 51.5566 19.7183 68.0011C11.7183 88.0011 19.2739 104.446 41.9405 104.446Z" fill="#07401A"/>
</svg>
