<svg width="508" height="364" viewBox="0 0 508 364" fill="none" xmlns="http://www.w3.org/2000/svg">
<g opacity="0.2" filter="url(#filter0_ddd_2576_10973)">
<rect width="298" height="192.5" rx="5.4" transform="matrix(0.965926 -0.258819 0.707107 0.707107 40.6304 177.571)" fill="white"/>
<rect x="2.50955" y="0.672432" width="295" height="189.5" rx="3.9" transform="matrix(0.965926 -0.258819 0.707107 0.707107 40.2404 178.418)" stroke="#737373" stroke-width="3"/>
</g>
<g opacity="0.5" filter="url(#filter1_ddd_2576_10973)">
<rect width="298" height="192.5" rx="5.4" transform="matrix(0.965926 -0.258819 0.707107 0.707107 40.6304 144.325)" fill="white"/>
<rect x="2.50955" y="0.672432" width="295" height="189.5" rx="3.9" transform="matrix(0.965926 -0.258819 0.707107 0.707107 40.2404 145.172)" stroke="#737373" stroke-width="3"/>
</g>
<g filter="url(#filter2_ddd_2576_10973)">
<g clip-path="url(#clip0_2576_10973)">
<rect width="298" height="192.5" rx="5.4" transform="matrix(0.965926 -0.258819 0.707107 0.707107 40.6304 111.079)" fill="white"/>
<g clip-path="url(#clip1_2576_10973)">
<rect width="90.09" height="61.7222" rx="5.4" transform="matrix(0.965926 -0.258819 0.707107 0.707107 57.3608 115.562)" fill="white"/>
<g filter="url(#filter3_dd_2576_10973)">
<rect width="22.6622" height="22.6622" rx="5.04" transform="matrix(0.965926 -0.258819 0.707107 0.707107 69.1179 118.061)" fill="#D0EC1A"/>
<rect x="1.25477" y="0.336216" width="21.1622" height="21.1622" rx="4.29" transform="matrix(0.965926 -0.258819 0.707107 0.707107 68.9229 118.484)" stroke="#737373" stroke-width="1.5"/>
</g>
<g opacity="0.1">
<path d="M89.5973 138.54C88.6132 137.556 88.9052 136.466 90.2496 136.106L104.55 132.274C105.894 131.914 107.782 132.419 108.766 133.403L109.657 134.294C110.641 135.279 110.349 136.368 109.005 136.729L94.7043 140.56C93.36 140.921 91.4724 140.415 90.4883 139.431L89.5973 138.54Z" fill="#262626"/>
<path d="M95.3886 144.331C94.4045 143.347 94.6965 142.257 96.0408 141.897L163.588 123.797C164.932 123.437 166.82 123.943 167.804 124.927L168.695 125.818C169.679 126.802 169.387 127.892 168.043 128.252L100.496 146.351C99.1513 146.712 97.2637 146.206 96.2796 145.222L95.3886 144.331Z" fill="#737373"/>
<path d="M101.18 150.122C100.196 149.138 100.488 148.048 101.832 147.688L159.338 132.279C160.683 131.919 162.57 132.424 163.555 133.409L164.445 134.299C165.43 135.284 165.138 136.373 163.793 136.734L106.287 152.142C104.943 152.503 103.055 151.997 102.071 151.013L101.18 150.122Z" fill="#737373"/>
</g>
</g>
<rect x="1.25477" y="0.336216" width="88.59" height="60.2222" rx="4.65" transform="matrix(0.965926 -0.258819 0.707107 0.707107 57.1659 115.986)" stroke="#737373" stroke-width="1.5"/>
<g clip-path="url(#clip2_2576_10973)">
<rect width="90.09" height="61.7222" rx="5.4" transform="matrix(0.965926 -0.258819 0.707107 0.707107 148.032 91.2666)" fill="white"/>
<g filter="url(#filter4_dd_2576_10973)">
<rect width="22.6622" height="22.6622" rx="5.04" transform="matrix(0.965926 -0.258819 0.707107 0.707107 159.789 93.7646)" fill="#D0EC1A"/>
<rect x="1.25477" y="0.336216" width="21.1622" height="21.1622" rx="4.29" transform="matrix(0.965926 -0.258819 0.707107 0.707107 159.594 94.1879)" stroke="#737373" stroke-width="1.5"/>
</g>
<g opacity="0.1">
<path d="M180.269 114.244C179.285 113.26 179.577 112.17 180.921 111.81L195.221 107.978C196.566 107.618 198.453 108.123 199.438 109.108L200.328 109.999C201.313 110.983 201.021 112.072 199.676 112.433L185.376 116.264C184.031 116.625 182.144 116.119 181.16 115.135L180.269 114.244Z" fill="#262626"/>
<path d="M186.06 120.035C185.076 119.051 185.368 117.961 186.712 117.601L254.259 99.5015C255.604 99.1413 257.491 99.6471 258.475 100.631L259.366 101.522C260.351 102.506 260.059 103.596 258.714 103.956L191.167 122.055C189.823 122.416 187.935 121.91 186.951 120.926L186.06 120.035Z" fill="#737373"/>
<path d="M191.851 125.826C190.867 124.842 191.159 123.752 192.503 123.392L250.01 107.983C251.354 107.623 253.242 108.128 254.226 109.113L255.117 110.004C256.101 110.988 255.809 112.077 254.465 112.438L196.958 127.846C195.614 128.207 193.726 127.701 192.742 126.717L191.851 125.826Z" fill="#737373"/>
</g>
</g>
<rect x="1.25477" y="0.336216" width="88.59" height="60.2222" rx="4.65" transform="matrix(0.965926 -0.258819 0.707107 0.707107 147.837 91.6898)" stroke="#737373" stroke-width="1.5"/>
<g clip-path="url(#clip3_2576_10973)">
<rect width="90.09" height="61.7222" rx="5.4" transform="matrix(0.965926 -0.258819 0.707107 0.707107 238.704 66.9717)" fill="white"/>
<g filter="url(#filter5_dd_2576_10973)">
<rect width="22.6622" height="22.6622" rx="5.04" transform="matrix(0.965926 -0.258819 0.707107 0.707107 250.461 69.4697)" fill="#D0EC1A"/>
<rect x="1.25477" y="0.336216" width="21.1622" height="21.1622" rx="4.29" transform="matrix(0.965926 -0.258819 0.707107 0.707107 250.266 69.893)" stroke="#737373" stroke-width="1.5"/>
</g>
<g opacity="0.1">
<path d="M270.94 89.9489C269.956 88.9648 270.248 87.875 271.593 87.5148L285.893 83.683C287.237 83.3227 289.125 83.8285 290.109 84.8126L291 85.7036C291.984 86.6877 291.692 87.7775 290.348 88.1377L276.047 91.9695C274.703 92.3298 272.815 91.824 271.831 90.8399L270.94 89.9489Z" fill="#262626"/>
<path d="M276.732 95.7399C275.747 94.7558 276.04 93.666 277.384 93.3058L344.931 75.2066C346.275 74.8464 348.163 75.3521 349.147 76.3363L350.038 77.2272C351.022 78.2113 350.73 79.3011 349.386 79.6613L281.839 97.7606C280.494 98.1208 278.607 97.615 277.623 96.6309L276.732 95.7399Z" fill="#737373"/>
<path d="M282.523 101.531C281.539 100.547 281.831 99.457 283.175 99.0968L340.681 83.688C342.026 83.3278 343.913 83.8336 344.897 84.8177L345.788 85.7086C346.772 86.6928 346.48 87.7826 345.136 88.1428L287.63 103.552C286.285 103.912 284.398 103.406 283.414 102.422L282.523 101.531Z" fill="#737373"/>
</g>
</g>
<rect x="1.25477" y="0.336216" width="88.59" height="60.2222" rx="4.65" transform="matrix(0.965926 -0.258819 0.707107 0.707107 238.509 67.3949)" stroke="#737373" stroke-width="1.5"/>
<g clip-path="url(#clip4_2576_10973)">
<rect width="90.09" height="61.7222" rx="5.4" transform="matrix(0.965926 -0.258819 0.707107 0.707107 103.678 161.879)" fill="white"/>
<g filter="url(#filter6_dd_2576_10973)">
<rect width="22.6622" height="22.6622" rx="5.04" transform="matrix(0.965926 -0.258819 0.707107 0.707107 115.435 164.377)" fill="#D0EC1A"/>
<rect x="1.25477" y="0.336216" width="21.1622" height="21.1622" rx="4.29" transform="matrix(0.965926 -0.258819 0.707107 0.707107 115.24 164.8)" stroke="#737373" stroke-width="1.5"/>
</g>
<g opacity="0.1">
<path d="M135.914 184.856C134.93 183.872 135.222 182.782 136.567 182.422L150.867 178.59C152.212 178.23 154.099 178.736 155.083 179.72L155.974 180.611C156.958 181.595 156.666 182.685 155.322 183.045L141.021 186.877C139.677 187.237 137.79 186.731 136.805 185.747L135.914 184.856Z" fill="#262626"/>
<path d="M141.706 190.647C140.722 189.663 141.014 188.573 142.358 188.213L209.905 170.114C211.249 169.754 213.137 170.259 214.121 171.243L215.012 172.134C215.996 173.119 215.704 174.208 214.36 174.569L146.813 192.668C145.468 193.028 143.581 192.522 142.597 191.538L141.706 190.647Z" fill="#737373"/>
<path d="M147.497 196.438C146.513 195.454 146.805 194.364 148.149 194.004L205.656 178.595C207 178.235 208.888 178.741 209.872 179.725L210.763 180.616C211.747 181.6 211.455 182.69 210.11 183.05L152.604 198.459C151.26 198.819 149.372 198.313 148.388 197.329L147.497 196.438Z" fill="#737373"/>
</g>
</g>
<rect x="1.25477" y="0.336216" width="88.59" height="60.2222" rx="4.65" transform="matrix(0.965926 -0.258819 0.707107 0.707107 103.483 162.302)" stroke="#737373" stroke-width="1.5"/>
<g clip-path="url(#clip5_2576_10973)">
<rect width="90.09" height="61.7222" rx="5.4" transform="matrix(0.965926 -0.258819 0.707107 0.707107 194.349 137.584)" fill="white"/>
<g filter="url(#filter7_dd_2576_10973)">
<rect width="22.6622" height="22.6622" rx="5.04" transform="matrix(0.965926 -0.258819 0.707107 0.707107 206.106 140.082)" fill="#D0EC1A"/>
<rect x="1.25477" y="0.336216" width="21.1622" height="21.1622" rx="4.29" transform="matrix(0.965926 -0.258819 0.707107 0.707107 205.911 140.505)" stroke="#737373" stroke-width="1.5"/>
</g>
<g opacity="0.1">
<path d="M226.586 160.561C225.602 159.577 225.894 158.487 227.238 158.127L241.539 154.295C242.883 153.935 244.771 154.441 245.755 155.425L246.646 156.316C247.63 157.3 247.338 158.39 245.993 158.75L231.693 162.582C230.349 162.942 228.461 162.436 227.477 161.452L226.586 160.561Z" fill="#262626"/>
<path d="M232.377 166.352C231.393 165.368 231.685 164.278 233.029 163.918L300.576 145.819C301.921 145.459 303.808 145.964 304.792 146.949L305.683 147.84C306.667 148.824 306.375 149.913 305.031 150.274L237.484 168.373C236.14 168.733 234.252 168.227 233.268 167.243L232.377 166.352Z" fill="#737373"/>
<path d="M238.168 172.143C237.184 171.159 237.476 170.069 238.82 169.709L296.327 154.3C297.671 153.94 299.559 154.446 300.543 155.43L301.434 156.321C302.418 157.305 302.126 158.395 300.782 158.755L243.275 174.164C241.931 174.524 240.043 174.018 239.059 173.034L238.168 172.143Z" fill="#737373"/>
</g>
</g>
<rect x="1.25477" y="0.336216" width="88.59" height="60.2222" rx="4.65" transform="matrix(0.965926 -0.258819 0.707107 0.707107 194.154 138.007)" stroke="#737373" stroke-width="1.5"/>
<g clip-path="url(#clip6_2576_10973)">
<rect width="90.09" height="61.7222" rx="5.4" transform="matrix(0.965926 -0.258819 0.707107 0.707107 285.021 113.288)" fill="white"/>
<g filter="url(#filter8_dd_2576_10973)">
<rect width="22.6622" height="22.6622" rx="5.04" transform="matrix(0.965926 -0.258819 0.707107 0.707107 296.778 115.786)" fill="#D0EC1A"/>
<rect x="1.25477" y="0.336216" width="21.1622" height="21.1622" rx="4.29" transform="matrix(0.965926 -0.258819 0.707107 0.707107 296.583 116.209)" stroke="#737373" stroke-width="1.5"/>
</g>
<g opacity="0.1">
<path d="M317.257 136.265C316.273 135.281 316.565 134.191 317.91 133.831L332.21 129.999C333.555 129.639 335.442 130.145 336.426 131.129L337.317 132.02C338.301 133.004 338.009 134.094 336.665 134.454L322.364 138.286C321.02 138.646 319.133 138.14 318.148 137.156L317.257 136.265Z" fill="#262626"/>
<path d="M323.049 142.056C322.064 141.072 322.356 139.982 323.701 139.622L391.248 121.523C392.592 121.163 394.48 121.669 395.464 122.653L396.355 123.544C397.339 124.528 397.047 125.618 395.703 125.978L328.156 144.077C326.811 144.437 324.924 143.931 323.939 142.947L323.049 142.056Z" fill="#737373"/>
<path d="M328.84 147.847C327.856 146.863 328.148 145.773 329.492 145.413L386.999 130.004C388.343 129.644 390.231 130.15 391.215 131.134L392.106 132.025C393.09 133.009 392.798 134.099 391.453 134.459L333.947 149.868C332.603 150.228 330.715 149.722 329.731 148.738L328.84 147.847Z" fill="#737373"/>
</g>
</g>
<rect x="1.25477" y="0.336216" width="88.59" height="60.2222" rx="4.65" transform="matrix(0.965926 -0.258819 0.707107 0.707107 284.826 113.711)" stroke="#737373" stroke-width="1.5"/>
<g clip-path="url(#clip7_2576_10973)">
<rect width="90.09" height="61.7222" rx="5.4" transform="matrix(0.965926 -0.258819 0.707107 0.707107 149.995 208.196)" fill="white"/>
<g filter="url(#filter9_dd_2576_10973)">
<rect width="22.6622" height="22.6622" rx="5.04" transform="matrix(0.965926 -0.258819 0.707107 0.707107 161.752 210.694)" fill="#D0EC1A"/>
<rect x="1.25477" y="0.336216" width="21.1622" height="21.1622" rx="4.29" transform="matrix(0.965926 -0.258819 0.707107 0.707107 161.557 211.118)" stroke="#737373" stroke-width="1.5"/>
</g>
<g opacity="0.1">
<path d="M182.231 231.174C181.247 230.189 181.539 229.1 182.884 228.739L197.184 224.908C198.528 224.547 200.416 225.053 201.4 226.037L202.291 226.928C203.275 227.912 202.983 229.002 201.639 229.362L187.338 233.194C185.994 233.554 184.106 233.049 183.122 232.064L182.231 231.174Z" fill="#262626"/>
<path d="M188.023 236.965C187.039 235.98 187.331 234.891 188.675 234.53L256.222 216.431C257.566 216.071 259.454 216.577 260.438 217.561L261.329 218.452C262.313 219.436 262.021 220.526 260.677 220.886L193.13 238.985C191.785 239.345 189.898 238.84 188.914 237.855L188.023 236.965Z" fill="#737373"/>
<path d="M193.814 242.756C192.83 241.771 193.122 240.682 194.466 240.321L251.973 224.913C253.317 224.552 255.204 225.058 256.189 226.042L257.08 226.933C258.064 227.917 257.772 229.007 256.427 229.367L198.921 244.776C197.577 245.136 195.689 244.631 194.705 243.646L193.814 242.756Z" fill="#737373"/>
</g>
</g>
<rect x="1.25477" y="0.336216" width="88.59" height="60.2222" rx="4.65" transform="matrix(0.965926 -0.258819 0.707107 0.707107 149.8 208.62)" stroke="#737373" stroke-width="1.5"/>
<g clip-path="url(#clip8_2576_10973)">
<rect width="90.09" height="61.7222" rx="5.4" transform="matrix(0.965926 -0.258819 0.707107 0.707107 240.666 183.9)" fill="white"/>
<g filter="url(#filter10_dd_2576_10973)">
<rect width="22.6622" height="22.6622" rx="5.04" transform="matrix(0.965926 -0.258819 0.707107 0.707107 252.423 186.398)" fill="#D0EC1A"/>
<rect x="1.25477" y="0.336216" width="21.1622" height="21.1622" rx="4.29" transform="matrix(0.965926 -0.258819 0.707107 0.707107 252.228 186.822)" stroke="#737373" stroke-width="1.5"/>
</g>
<g opacity="0.1">
<path d="M272.903 206.878C271.919 205.893 272.211 204.804 273.555 204.443L287.856 200.612C289.2 200.251 291.087 200.757 292.072 201.741L292.963 202.632C293.947 203.616 293.655 204.706 292.31 205.066L278.01 208.898C276.665 209.258 274.778 208.753 273.794 207.769L272.903 206.878Z" fill="#262626"/>
<path d="M278.694 212.669C277.71 211.685 278.002 210.595 279.346 210.234L346.893 192.135C348.238 191.775 350.125 192.281 351.109 193.265L352 194.156C352.985 195.14 352.693 196.23 351.348 196.59L283.801 214.689C282.457 215.049 280.569 214.544 279.585 213.56L278.694 212.669Z" fill="#737373"/>
<path d="M284.486 218.46C283.501 217.476 283.793 216.386 285.138 216.026L342.644 200.617C343.988 200.257 345.876 200.762 346.86 201.746L347.751 202.637C348.735 203.621 348.443 204.711 347.099 205.071L289.593 220.48C288.248 220.84 286.361 220.335 285.376 219.351L284.486 218.46Z" fill="#737373"/>
</g>
</g>
<rect x="1.25477" y="0.336216" width="88.59" height="60.2222" rx="4.65" transform="matrix(0.965926 -0.258819 0.707107 0.707107 240.471 184.324)" stroke="#737373" stroke-width="1.5"/>
<g clip-path="url(#clip9_2576_10973)">
<rect width="90.09" height="61.7222" rx="5.4" transform="matrix(0.965926 -0.258819 0.707107 0.707107 331.338 159.605)" fill="white"/>
<g filter="url(#filter11_dd_2576_10973)">
<rect width="22.6622" height="22.6622" rx="5.04" transform="matrix(0.965926 -0.258819 0.707107 0.707107 343.095 162.104)" fill="#D0EC1A"/>
<rect x="1.25477" y="0.336216" width="21.1622" height="21.1622" rx="4.29" transform="matrix(0.965926 -0.258819 0.707107 0.707107 342.9 162.527)" stroke="#737373" stroke-width="1.5"/>
</g>
<g opacity="0.1">
<path d="M363.574 182.583C362.59 181.599 362.882 180.509 364.227 180.149L378.527 176.317C379.871 175.957 381.759 176.462 382.743 177.446L383.634 178.337C384.618 179.322 384.326 180.411 382.982 180.772L368.681 184.603C367.337 184.964 365.449 184.458 364.465 183.474L363.574 182.583Z" fill="#262626"/>
<path d="M369.365 188.374C368.381 187.39 368.673 186.3 370.018 185.94L437.565 167.84C438.909 167.48 440.797 167.986 441.781 168.97L442.672 169.861C443.656 170.845 443.364 171.935 442.02 172.295L374.472 190.394C373.128 190.755 371.24 190.249 370.256 189.265L369.365 188.374Z" fill="#737373"/>
<path d="M375.157 194.165C374.173 193.181 374.465 192.091 375.809 191.731L433.316 176.322C434.66 175.962 436.547 176.467 437.532 177.451L438.423 178.342C439.407 179.327 439.115 180.416 437.77 180.777L380.264 196.185C378.92 196.546 377.032 196.04 376.048 195.056L375.157 194.165Z" fill="#737373"/>
</g>
</g>
<rect x="1.25477" y="0.336216" width="88.59" height="60.2222" rx="4.65" transform="matrix(0.965926 -0.258819 0.707107 0.707107 331.143 160.029)" stroke="#737373" stroke-width="1.5"/>
<rect width="298" height="117" transform="matrix(0.965926 -0.258819 0.707107 0.707107 94.0171 164.466)" fill="url(#paint0_linear_2576_10973)"/>
</g>
<rect x="2.50955" y="0.672432" width="295" height="189.5" rx="3.9" transform="matrix(0.965926 -0.258819 0.707107 0.707107 40.2404 111.926)" stroke="#737373" stroke-width="3"/>
</g>
<defs>
<filter id="filter0_ddd_2576_10973" x="-2.56963" y="65.3434" width="510.364" height="299.646" filterUnits="userSpaceOnUse" color-interpolation-filters="sRGB">
<feFlood flood-opacity="0" result="BackgroundImageFix"/>
<feColorMatrix in="SourceAlpha" type="matrix" values="0 0 0 0 0 0 0 0 0 0 0 0 0 0 0 0 0 0 127 0" result="hardAlpha"/>
<feOffset dy="8.1"/>
<feGaussianBlur stdDeviation="21.6"/>
<feColorMatrix type="matrix" values="0 0 0 0 0 0 0 0 0 0 0 0 0 0 0 0 0 0 0.088 0"/>
<feBlend mode="normal" in2="BackgroundImageFix" result="effect1_dropShadow_2576_10973"/>
<feColorMatrix in="SourceAlpha" type="matrix" values="0 0 0 0 0 0 0 0 0 0 0 0 0 0 0 0 0 0 127 0" result="hardAlpha"/>
<feOffset dy="5.4"/>
<feGaussianBlur stdDeviation="10.8"/>
<feColorMatrix type="matrix" values="0 0 0 0 0 0 0 0 0 0 0 0 0 0 0 0 0 0 0.011 0"/>
<feBlend mode="normal" in2="effect1_dropShadow_2576_10973" result="effect2_dropShadow_2576_10973"/>
<feColorMatrix in="SourceAlpha" type="matrix" values="0 0 0 0 0 0 0 0 0 0 0 0 0 0 0 0 0 0 127 0" result="hardAlpha"/>
<feOffset dy="0.9"/>
<feGaussianBlur stdDeviation="0.45"/>
<feColorMatrix type="matrix" values="0 0 0 0 0 0 0 0 0 0 0 0 0 0 0 0 0 0 0.044 0"/>
<feBlend mode="normal" in2="effect2_dropShadow_2576_10973" result="effect3_dropShadow_2576_10973"/>
<feBlend mode="normal" in="SourceGraphic" in2="effect3_dropShadow_2576_10973" result="shape"/>
</filter>
<filter id="filter1_ddd_2576_10973" x="-2.56963" y="32.0973" width="510.364" height="299.646" filterUnits="userSpaceOnUse" color-interpolation-filters="sRGB">
<feFlood flood-opacity="0" result="BackgroundImageFix"/>
<feColorMatrix in="SourceAlpha" type="matrix" values="0 0 0 0 0 0 0 0 0 0 0 0 0 0 0 0 0 0 127 0" result="hardAlpha"/>
<feOffset dy="8.1"/>
<feGaussianBlur stdDeviation="21.6"/>
<feColorMatrix type="matrix" values="0 0 0 0 0 0 0 0 0 0 0 0 0 0 0 0 0 0 0.088 0"/>
<feBlend mode="normal" in2="BackgroundImageFix" result="effect1_dropShadow_2576_10973"/>
<feColorMatrix in="SourceAlpha" type="matrix" values="0 0 0 0 0 0 0 0 0 0 0 0 0 0 0 0 0 0 127 0" result="hardAlpha"/>
<feOffset dy="5.4"/>
<feGaussianBlur stdDeviation="10.8"/>
<feColorMatrix type="matrix" values="0 0 0 0 0 0 0 0 0 0 0 0 0 0 0 0 0 0 0.011 0"/>
<feBlend mode="normal" in2="effect1_dropShadow_2576_10973" result="effect2_dropShadow_2576_10973"/>
<feColorMatrix in="SourceAlpha" type="matrix" values="0 0 0 0 0 0 0 0 0 0 0 0 0 0 0 0 0 0 127 0" result="hardAlpha"/>
<feOffset dy="0.9"/>
<feGaussianBlur stdDeviation="0.45"/>
<feColorMatrix type="matrix" values="0 0 0 0 0 0 0 0 0 0 0 0 0 0 0 0 0 0 0.044 0"/>
<feBlend mode="normal" in2="effect2_dropShadow_2576_10973" result="effect3_dropShadow_2576_10973"/>
<feBlend mode="normal" in="SourceGraphic" in2="effect3_dropShadow_2576_10973" result="shape"/>
</filter>
<filter id="filter2_ddd_2576_10973" x="-2.56963" y="-1.14883" width="510.364" height="299.646" filterUnits="userSpaceOnUse" color-interpolation-filters="sRGB">
<feFlood flood-opacity="0" result="BackgroundImageFix"/>
<feColorMatrix in="SourceAlpha" type="matrix" values="0 0 0 0 0 0 0 0 0 0 0 0 0 0 0 0 0 0 127 0" result="hardAlpha"/>
<feOffset dy="8.1"/>
<feGaussianBlur stdDeviation="21.6"/>
<feColorMatrix type="matrix" values="0 0 0 0 0 0 0 0 0 0 0 0 0 0 0 0 0 0 0.088 0"/>
<feBlend mode="normal" in2="BackgroundImageFix" result="effect1_dropShadow_2576_10973"/>
<feColorMatrix in="SourceAlpha" type="matrix" values="0 0 0 0 0 0 0 0 0 0 0 0 0 0 0 0 0 0 127 0" result="hardAlpha"/>
<feOffset dy="5.4"/>
<feGaussianBlur stdDeviation="10.8"/>
<feColorMatrix type="matrix" values="0 0 0 0 0 0 0 0 0 0 0 0 0 0 0 0 0 0 0.011 0"/>
<feBlend mode="normal" in2="effect1_dropShadow_2576_10973" result="effect2_dropShadow_2576_10973"/>
<feColorMatrix in="SourceAlpha" type="matrix" values="0 0 0 0 0 0 0 0 0 0 0 0 0 0 0 0 0 0 127 0" result="hardAlpha"/>
<feOffset dy="0.9"/>
<feGaussianBlur stdDeviation="0.45"/>
<feColorMatrix type="matrix" values="0 0 0 0 0 0 0 0 0 0 0 0 0 0 0 0 0 0 0.044 0"/>
<feBlend mode="normal" in2="effect2_dropShadow_2576_10973" result="effect3_dropShadow_2576_10973"/>
<feBlend mode="normal" in="SourceGraphic" in2="effect3_dropShadow_2576_10973" result="shape"/>
</filter>
<filter id="filter3_dd_2576_10973" x="67.8579" y="111.565" width="40.4346" height="24.4096" filterUnits="userSpaceOnUse" color-interpolation-filters="sRGB">
<feFlood flood-opacity="0" result="BackgroundImageFix"/>
<feColorMatrix in="SourceAlpha" type="matrix" values="0 0 0 0 0 0 0 0 0 0 0 0 0 0 0 0 0 0 127 0" result="hardAlpha"/>
<feOffset dy="0.315"/>
<feGaussianBlur stdDeviation="0.315"/>
<feComposite in2="hardAlpha" operator="out"/>
<feColorMatrix type="matrix" values="0 0 0 0 0 0 0 0 0 0 0 0 0 0 0 0 0 0 0.04 0"/>
<feBlend mode="normal" in2="BackgroundImageFix" result="effect1_dropShadow_2576_10973"/>
<feColorMatrix in="SourceAlpha" type="matrix" values="0 0 0 0 0 0 0 0 0 0 0 0 0 0 0 0 0 0 127 0" result="hardAlpha"/>
<feOffset dy="0.63"/>
<feGaussianBlur stdDeviation="0.63"/>
<feColorMatrix type="matrix" values="0 0 0 0 0 0 0 0 0 0 0 0 0 0 0 0 0 0 0.04 0"/>
<feBlend mode="normal" in2="effect1_dropShadow_2576_10973" result="effect2_dropShadow_2576_10973"/>
<feBlend mode="normal" in="SourceGraphic" in2="effect2_dropShadow_2576_10973" result="shape"/>
</filter>
<filter id="filter4_dd_2576_10973" x="158.529" y="87.2694" width="40.4346" height="24.4096" filterUnits="userSpaceOnUse" color-interpolation-filters="sRGB">
<feFlood flood-opacity="0" result="BackgroundImageFix"/>
<feColorMatrix in="SourceAlpha" type="matrix" values="0 0 0 0 0 0 0 0 0 0 0 0 0 0 0 0 0 0 127 0" result="hardAlpha"/>
<feOffset dy="0.315"/>
<feGaussianBlur stdDeviation="0.315"/>
<feComposite in2="hardAlpha" operator="out"/>
<feColorMatrix type="matrix" values="0 0 0 0 0 0 0 0 0 0 0 0 0 0 0 0 0 0 0.04 0"/>
<feBlend mode="normal" in2="BackgroundImageFix" result="effect1_dropShadow_2576_10973"/>
<feColorMatrix in="SourceAlpha" type="matrix" values="0 0 0 0 0 0 0 0 0 0 0 0 0 0 0 0 0 0 127 0" result="hardAlpha"/>
<feOffset dy="0.63"/>
<feGaussianBlur stdDeviation="0.63"/>
<feColorMatrix type="matrix" values="0 0 0 0 0 0 0 0 0 0 0 0 0 0 0 0 0 0 0.04 0"/>
<feBlend mode="normal" in2="effect1_dropShadow_2576_10973" result="effect2_dropShadow_2576_10973"/>
<feBlend mode="normal" in="SourceGraphic" in2="effect2_dropShadow_2576_10973" result="shape"/>
</filter>
<filter id="filter5_dd_2576_10973" x="249.201" y="62.9745" width="40.4346" height="24.4096" filterUnits="userSpaceOnUse" color-interpolation-filters="sRGB">
<feFlood flood-opacity="0" result="BackgroundImageFix"/>
<feColorMatrix in="SourceAlpha" type="matrix" values="0 0 0 0 0 0 0 0 0 0 0 0 0 0 0 0 0 0 127 0" result="hardAlpha"/>
<feOffset dy="0.315"/>
<feGaussianBlur stdDeviation="0.315"/>
<feComposite in2="hardAlpha" operator="out"/>
<feColorMatrix type="matrix" values="0 0 0 0 0 0 0 0 0 0 0 0 0 0 0 0 0 0 0.04 0"/>
<feBlend mode="normal" in2="BackgroundImageFix" result="effect1_dropShadow_2576_10973"/>
<feColorMatrix in="SourceAlpha" type="matrix" values="0 0 0 0 0 0 0 0 0 0 0 0 0 0 0 0 0 0 127 0" result="hardAlpha"/>
<feOffset dy="0.63"/>
<feGaussianBlur stdDeviation="0.63"/>
<feColorMatrix type="matrix" values="0 0 0 0 0 0 0 0 0 0 0 0 0 0 0 0 0 0 0.04 0"/>
<feBlend mode="normal" in2="effect1_dropShadow_2576_10973" result="effect2_dropShadow_2576_10973"/>
<feBlend mode="normal" in="SourceGraphic" in2="effect2_dropShadow_2576_10973" result="shape"/>
</filter>
<filter id="filter6_dd_2576_10973" x="114.175" y="157.882" width="40.4346" height="24.4096" filterUnits="userSpaceOnUse" color-interpolation-filters="sRGB">
<feFlood flood-opacity="0" result="BackgroundImageFix"/>
<feColorMatrix in="SourceAlpha" type="matrix" values="0 0 0 0 0 0 0 0 0 0 0 0 0 0 0 0 0 0 127 0" result="hardAlpha"/>
<feOffset dy="0.315"/>
<feGaussianBlur stdDeviation="0.315"/>
<feComposite in2="hardAlpha" operator="out"/>
<feColorMatrix type="matrix" values="0 0 0 0 0 0 0 0 0 0 0 0 0 0 0 0 0 0 0.04 0"/>
<feBlend mode="normal" in2="BackgroundImageFix" result="effect1_dropShadow_2576_10973"/>
<feColorMatrix in="SourceAlpha" type="matrix" values="0 0 0 0 0 0 0 0 0 0 0 0 0 0 0 0 0 0 127 0" result="hardAlpha"/>
<feOffset dy="0.63"/>
<feGaussianBlur stdDeviation="0.63"/>
<feColorMatrix type="matrix" values="0 0 0 0 0 0 0 0 0 0 0 0 0 0 0 0 0 0 0.04 0"/>
<feBlend mode="normal" in2="effect1_dropShadow_2576_10973" result="effect2_dropShadow_2576_10973"/>
<feBlend mode="normal" in="SourceGraphic" in2="effect2_dropShadow_2576_10973" result="shape"/>
</filter>
<filter id="filter7_dd_2576_10973" x="204.846" y="133.587" width="40.4346" height="24.4096" filterUnits="userSpaceOnUse" color-interpolation-filters="sRGB">
<feFlood flood-opacity="0" result="BackgroundImageFix"/>
<feColorMatrix in="SourceAlpha" type="matrix" values="0 0 0 0 0 0 0 0 0 0 0 0 0 0 0 0 0 0 127 0" result="hardAlpha"/>
<feOffset dy="0.315"/>
<feGaussianBlur stdDeviation="0.315"/>
<feComposite in2="hardAlpha" operator="out"/>
<feColorMatrix type="matrix" values="0 0 0 0 0 0 0 0 0 0 0 0 0 0 0 0 0 0 0.04 0"/>
<feBlend mode="normal" in2="BackgroundImageFix" result="effect1_dropShadow_2576_10973"/>
<feColorMatrix in="SourceAlpha" type="matrix" values="0 0 0 0 0 0 0 0 0 0 0 0 0 0 0 0 0 0 127 0" result="hardAlpha"/>
<feOffset dy="0.63"/>
<feGaussianBlur stdDeviation="0.63"/>
<feColorMatrix type="matrix" values="0 0 0 0 0 0 0 0 0 0 0 0 0 0 0 0 0 0 0.04 0"/>
<feBlend mode="normal" in2="effect1_dropShadow_2576_10973" result="effect2_dropShadow_2576_10973"/>
<feBlend mode="normal" in="SourceGraphic" in2="effect2_dropShadow_2576_10973" result="shape"/>
</filter>
<filter id="filter8_dd_2576_10973" x="295.518" y="109.291" width="40.4346" height="24.4096" filterUnits="userSpaceOnUse" color-interpolation-filters="sRGB">
<feFlood flood-opacity="0" result="BackgroundImageFix"/>
<feColorMatrix in="SourceAlpha" type="matrix" values="0 0 0 0 0 0 0 0 0 0 0 0 0 0 0 0 0 0 127 0" result="hardAlpha"/>
<feOffset dy="0.315"/>
<feGaussianBlur stdDeviation="0.315"/>
<feComposite in2="hardAlpha" operator="out"/>
<feColorMatrix type="matrix" values="0 0 0 0 0 0 0 0 0 0 0 0 0 0 0 0 0 0 0.04 0"/>
<feBlend mode="normal" in2="BackgroundImageFix" result="effect1_dropShadow_2576_10973"/>
<feColorMatrix in="SourceAlpha" type="matrix" values="0 0 0 0 0 0 0 0 0 0 0 0 0 0 0 0 0 0 127 0" result="hardAlpha"/>
<feOffset dy="0.63"/>
<feGaussianBlur stdDeviation="0.63"/>
<feColorMatrix type="matrix" values="0 0 0 0 0 0 0 0 0 0 0 0 0 0 0 0 0 0 0.04 0"/>
<feBlend mode="normal" in2="effect1_dropShadow_2576_10973" result="effect2_dropShadow_2576_10973"/>
<feBlend mode="normal" in="SourceGraphic" in2="effect2_dropShadow_2576_10973" result="shape"/>
</filter>
<filter id="filter9_dd_2576_10973" x="160.492" y="204.199" width="40.4346" height="24.4096" filterUnits="userSpaceOnUse" color-interpolation-filters="sRGB">
<feFlood flood-opacity="0" result="BackgroundImageFix"/>
<feColorMatrix in="SourceAlpha" type="matrix" values="0 0 0 0 0 0 0 0 0 0 0 0 0 0 0 0 0 0 127 0" result="hardAlpha"/>
<feOffset dy="0.315"/>
<feGaussianBlur stdDeviation="0.315"/>
<feComposite in2="hardAlpha" operator="out"/>
<feColorMatrix type="matrix" values="0 0 0 0 0 0 0 0 0 0 0 0 0 0 0 0 0 0 0.04 0"/>
<feBlend mode="normal" in2="BackgroundImageFix" result="effect1_dropShadow_2576_10973"/>
<feColorMatrix in="SourceAlpha" type="matrix" values="0 0 0 0 0 0 0 0 0 0 0 0 0 0 0 0 0 0 127 0" result="hardAlpha"/>
<feOffset dy="0.63"/>
<feGaussianBlur stdDeviation="0.63"/>
<feColorMatrix type="matrix" values="0 0 0 0 0 0 0 0 0 0 0 0 0 0 0 0 0 0 0.04 0"/>
<feBlend mode="normal" in2="effect1_dropShadow_2576_10973" result="effect2_dropShadow_2576_10973"/>
<feBlend mode="normal" in="SourceGraphic" in2="effect2_dropShadow_2576_10973" result="shape"/>
</filter>
<filter id="filter10_dd_2576_10973" x="251.163" y="179.903" width="40.4346" height="24.4096" filterUnits="userSpaceOnUse" color-interpolation-filters="sRGB">
<feFlood flood-opacity="0" result="BackgroundImageFix"/>
<feColorMatrix in="SourceAlpha" type="matrix" values="0 0 0 0 0 0 0 0 0 0 0 0 0 0 0 0 0 0 127 0" result="hardAlpha"/>
<feOffset dy="0.315"/>
<feGaussianBlur stdDeviation="0.315"/>
<feComposite in2="hardAlpha" operator="out"/>
<feColorMatrix type="matrix" values="0 0 0 0 0 0 0 0 0 0 0 0 0 0 0 0 0 0 0.04 0"/>
<feBlend mode="normal" in2="BackgroundImageFix" result="effect1_dropShadow_2576_10973"/>
<feColorMatrix in="SourceAlpha" type="matrix" values="0 0 0 0 0 0 0 0 0 0 0 0 0 0 0 0 0 0 127 0" result="hardAlpha"/>
<feOffset dy="0.63"/>
<feGaussianBlur stdDeviation="0.63"/>
<feColorMatrix type="matrix" values="0 0 0 0 0 0 0 0 0 0 0 0 0 0 0 0 0 0 0.04 0"/>
<feBlend mode="normal" in2="effect1_dropShadow_2576_10973" result="effect2_dropShadow_2576_10973"/>
<feBlend mode="normal" in="SourceGraphic" in2="effect2_dropShadow_2576_10973" result="shape"/>
</filter>
<filter id="filter11_dd_2576_10973" x="341.835" y="155.608" width="40.4346" height="24.4096" filterUnits="userSpaceOnUse" color-interpolation-filters="sRGB">
<feFlood flood-opacity="0" result="BackgroundImageFix"/>
<feColorMatrix in="SourceAlpha" type="matrix" values="0 0 0 0 0 0 0 0 0 0 0 0 0 0 0 0 0 0 127 0" result="hardAlpha"/>
<feOffset dy="0.315"/>
<feGaussianBlur stdDeviation="0.315"/>
<feComposite in2="hardAlpha" operator="out"/>
<feColorMatrix type="matrix" values="0 0 0 0 0 0 0 0 0 0 0 0 0 0 0 0 0 0 0.04 0"/>
<feBlend mode="normal" in2="BackgroundImageFix" result="effect1_dropShadow_2576_10973"/>
<feColorMatrix in="SourceAlpha" type="matrix" values="0 0 0 0 0 0 0 0 0 0 0 0 0 0 0 0 0 0 127 0" result="hardAlpha"/>
<feOffset dy="0.63"/>
<feGaussianBlur stdDeviation="0.63"/>
<feColorMatrix type="matrix" values="0 0 0 0 0 0 0 0 0 0 0 0 0 0 0 0 0 0 0.04 0"/>
<feBlend mode="normal" in2="effect1_dropShadow_2576_10973" result="effect2_dropShadow_2576_10973"/>
<feBlend mode="normal" in="SourceGraphic" in2="effect2_dropShadow_2576_10973" result="shape"/>
</filter>
<linearGradient id="paint0_linear_2576_10973" x1="181.477" y1="103" x2="181.477" y2="0" gradientUnits="userSpaceOnUse">
<stop stop-color="white"/>
<stop offset="1" stop-color="white" stop-opacity="0"/>
</linearGradient>
<clipPath id="clip0_2576_10973">
<rect width="298" height="192.5" rx="5.4" transform="matrix(0.965926 -0.258819 0.707107 0.707107 40.6304 111.079)" fill="white"/>
</clipPath>
<clipPath id="clip1_2576_10973">
<rect width="90.09" height="61.7222" rx="5.4" transform="matrix(0.965926 -0.258819 0.707107 0.707107 57.3608 115.562)" fill="white"/>
</clipPath>
<clipPath id="clip2_2576_10973">
<rect width="90.09" height="61.7222" rx="5.4" transform="matrix(0.965926 -0.258819 0.707107 0.707107 148.032 91.2666)" fill="white"/>
</clipPath>
<clipPath id="clip3_2576_10973">
<rect width="90.09" height="61.7222" rx="5.4" transform="matrix(0.965926 -0.258819 0.707107 0.707107 238.704 66.9717)" fill="white"/>
</clipPath>
<clipPath id="clip4_2576_10973">
<rect width="90.09" height="61.7222" rx="5.4" transform="matrix(0.965926 -0.258819 0.707107 0.707107 103.678 161.879)" fill="white"/>
</clipPath>
<clipPath id="clip5_2576_10973">
<rect width="90.09" height="61.7222" rx="5.4" transform="matrix(0.965926 -0.258819 0.707107 0.707107 194.349 137.584)" fill="white"/>
</clipPath>
<clipPath id="clip6_2576_10973">
<rect width="90.09" height="61.7222" rx="5.4" transform="matrix(0.965926 -0.258819 0.707107 0.707107 285.021 113.288)" fill="white"/>
</clipPath>
<clipPath id="clip7_2576_10973">
<rect width="90.09" height="61.7222" rx="5.4" transform="matrix(0.965926 -0.258819 0.707107 0.707107 149.995 208.196)" fill="white"/>
</clipPath>
<clipPath id="clip8_2576_10973">
<rect width="90.09" height="61.7222" rx="5.4" transform="matrix(0.965926 -0.258819 0.707107 0.707107 240.666 183.9)" fill="white"/>
</clipPath>
<clipPath id="clip9_2576_10973">
<rect width="90.09" height="61.7222" rx="5.4" transform="matrix(0.965926 -0.258819 0.707107 0.707107 331.338 159.605)" fill="white"/>
</clipPath>
</defs>
</svg>
