<svg width="34" height="34" viewBox="0 0 34 34" fill="none" xmlns="http://www.w3.org/2000/svg">
<path d="M12.3961 28.8297C9.2208 28.8297 6.69924 27.6156 5.20497 25.4676C3.61732 23.2262 3.43054 20.0509 4.64463 16.6888C6.32567 12.2994 10.3415 9.59105 15.1979 9.59105H15.2912C15.2912 9.49766 15.2912 9.40427 15.2912 9.21748C15.1979 7.62983 16.2252 6.22896 17.7194 5.762L22.1088 4.08096C22.5758 3.89417 23.0427 3.80078 23.5097 3.80078C24.9106 3.80078 26.218 4.54791 26.8718 5.85539L28.6462 9.59105C29.2066 10.7117 29.2066 12.1126 28.5528 13.1399C27.8991 14.1672 26.8718 14.7276 25.7511 14.821C25.4709 15.3813 25.2841 15.9417 25.004 16.4086C24.4436 17.7161 23.8833 19.0236 23.2295 20.4245C20.8013 25.4676 18.093 28.8297 12.3961 28.8297Z" fill="#07401A"/>
<path d="M12.3957 25.5594C15.9446 25.5594 17.9058 23.9718 20.2406 19.022C21.5481 16.3137 22.5754 13.6053 23.7895 10.9904L25.2837 11.4573C25.6573 11.5507 25.9375 11.3639 25.7507 10.9904L23.8828 7.34811C23.7895 7.06793 23.4159 7.06793 23.2291 7.16132L18.7463 8.84237C18.3727 8.93576 18.3727 9.30933 18.7463 9.40272L20.0538 9.86968C18.9331 12.2979 17.6256 16.0335 16.5049 18.3683C15.2908 20.9833 14.7305 22.7577 12.5825 22.7577C10.4345 22.7577 10.1543 21.17 11.0882 18.8353C12.1155 16.1269 13.7966 15.3798 15.6644 15.9401C16.2247 15.193 16.5983 14.0723 16.7851 13.045C16.2247 12.8582 15.571 12.8582 15.0107 12.8582C11.9287 12.8582 8.84682 14.4459 7.53934 17.8079C6.13847 22.1973 7.63273 25.5594 12.3957 25.5594Z" fill="#D0EC1A"/>
</svg>
